<?xml version="1.0" encoding="utf-8"?>
<!-- Generator: Adobe Illustrator 24.1.2, SVG Export Plug-In . SVG Version: 6.00 Build 0)  -->
<svg version="1.1" id="Camada_1" xmlns="http://www.w3.org/2000/svg" xmlns:xlink="http://www.w3.org/1999/xlink" x="0px" y="0px"
	 viewBox="0 0 1080 1080" style="enable-background:new 0 0 1080 1080;" xml:space="preserve">
<style type="text/css">
	.st0{opacity:0.35;}
	.st1{fill:#BF0000;}
</style>
<g class="st0">
	<path class="st1" d="M1072.8,781.3c-3,13.6-5.3,27.5-9.2,40.8c-27.9,96-93.3,152.1-189.7,170.7c-84.4,16.3-162.1-1.7-227.6-59.9
		c-47.1-41.8-71.6-96-74.8-158.2c-4.4-87.3-1.7-174.7-2.4-262.1c-0.1-11.1-0.2-22.2-0.1-33.3c0.1-13.8,6.5-24,19.3-29.3
		c12.8-5.2,24.8-2.9,34.2,7.3c3.7,4,6.9,4.5,11.7,3.5c51.4-11.1,102.9-22.1,154.3-33c4-0.8,6.7-1.7,8.1-6.3
		c7.3-24.8,15-49.5,23-75.8c-20.7,4.9-40,9.5-59.4,14.2c-38,9.2-76,18.5-114,27.6c-27.9,6.7-47.3-11.5-41.8-40.1
		c17.9-93,18.2-186.7,11.2-280.7c-1.5-20.1,10-35.5,27.8-37.1c19.1-1.6,32.8,11,34.4,31.7c0.7,9.7,1.3,19.4,1.9,29.1
		c0.7,12.1,1.4,24.2,2.2,37c47.9-9.3,95.4-18.5,142.8-27.6c7.1-1.4,14.3-2.7,21.4-4.1c18.1-3.5,33.9,6.4,37.8,23.8
		c3.8,16.9-6.9,33.5-24.7,37.2c-22,4.6-44.2,8.5-66.3,12.8c-34.7,6.7-69.3,13.6-104,20.2c-4.1,0.8-7,1.3-7.1,6.6
		c-0.1,39.2-3.7,78.2-8.7,117.1c-0.1,0.6,0.2,1.3,0.6,3c26.1-6.2,52.1-12.4,78.2-18.7c38.7-9.4,77.3-18.9,116-28.2
		c18-4.3,32.6,2.1,39.3,16.7c6.7,14.6,1.8,29.5-13.7,40c-2.9,2-4.2,4.3-5.1,7.2c-7.7,25.4-15.4,50.9-23.3,76.9
		c9.2,0.3,17.3-3,25.7-4.4c18-3,34,7.1,37.7,24.2c3.5,16.2-7,32.8-24.5,36.6c-52,11.4-104.2,22.4-156.3,33.5
		c-36.6,7.8-73.1,15.5-109.7,23.2c-3.9,0.8-6.9,1.6-6.7,7.1c0.4,15.2,0.2,30.4,0.2,46.3c48.7-7.9,96.5-15.6,144.3-23.4
		c30.8-5,61.5-10.2,92.3-15.1c16.7-2.6,32.5,9.3,35.4,26.4c2.8,16.2-8.8,32.3-26.3,35.3c-33.8,5.8-67.6,11.1-101.5,16.7
		c-45.4,7.4-90.9,15-136.4,22.1c-6.3,1-7.8,3.1-7.6,9.1c0.5,15.9,0.4,31.9,0.3,47.8c-0.1,5.1,1.3,6.5,6.6,5.7
		c70.8-11.4,141.6-22.6,212.4-33.9c3.8-0.6,7.5-1.2,11.3-1.5c17.9-1.5,32.1,9.5,34.7,27c2.4,16.1-8.5,31.2-26.1,34.3
		c-33.4,5.8-67,10.9-100.5,16.3c-43.8,7-87.5,13.9-131.3,20.7c-4.4,0.7-5.9,2.1-5.5,6.5c1,12.8,3.6,25.3,6.8,37.7
		c1.8,7,7.3,3.9,11.2,3.4c32.3-4,64.6-8.4,96.9-12.7c38.5-5.2,76.9-10.5,115.3-15.6c17.6-2.3,33.3,9.8,35.8,27.2
		c2.3,16.3-9.9,32.3-27.3,34.7c-52.2,7.1-104.4,13.9-156.6,20.9c-13.3,1.8-26.5,3.6-41.3,5.6c20.3,23.5,43.7,39.8,71.2,49.3
		c75.6,26.3,146.4,18.3,208.4-34.8c38.8-33.3,54.1-78.4,56.3-128.5c0.3-6.2-0.4-12.4,2-18.5c4.7-12.2,13.5-19.3,26.2-20.7
		c12.8-1.4,22.7,4.3,29.9,15c1.7,2.5,1.3,6.1,4.4,7.7c0,4.9,0,9.7,0,14.6c-1.7,4.2-1.7,8.3,0,12.5
		C1072.8,773,1072.8,777.1,1072.8,781.3z"/>
	<path class="st1" d="M7.2,500.4c6.5-15.5,18.9-21.8,34.9-25.1c73.5-15.1,146.9-31.2,220.4-46.4c9.3-1.9,9.5-5.2,6.8-12.9
		c-6.7-18.5-12.7-37.3-18.8-56c-6.2-19,2-36.6,19.2-42.1c17-5.3,33.3,3.7,39.7,22.3c7.5,21.9,15.1,43.8,22,65.9
		c1.9,6,4.2,6.3,10.2,6c18.2-1.1,27.1-10.5,33.5-27.2c15.4-40,33-79.1,50.1-119.3c-10.2,0.3-19,4.3-28,6.6
		c-65.9,17.1-132.7,24.7-200.8,19.9c-6.2-0.4-12.4-1.2-18.6-1.9c-18.1-1.9-30.6-16.7-29-34.1c1.6-17.1,16.7-29.8,35-28
		c28.7,2.8,57.4,3.9,86.2,1.9c87.6-5.9,169.9-30.4,247.5-71c5.2-2.7,10.2-5.8,16.2-6.6c15.3-1.9,29,5.7,34.2,19.4
		c5.3,14.1,0.3,30.1-13.3,37.8c-13.5,7.7-27.7,14.2-41.6,21.1c-3.8,1.9-6.9,3.7-8.8,8.1c-21,50-42.3,99.9-64.3,151.7
		c16.6-3.4,31.8-6.6,47.1-9.7c9.5-2,19-4,28.4-6c18.3-3.8,34.9,5.6,38.9,22.2c4.3,17.9-6.4,34.5-25.5,38.7
		c-29.4,6.5-58.9,12.6-88.3,18.9C311.7,482,182.7,509.4,53.8,537c-25.2,5.4-36,0.6-46.6-22C7.2,510.1,7.2,505.2,7.2,500.4z"/>
	<path class="st1" d="M1072.8,768.8c-3.5-4.2-2.9-8.3,0-12.5C1072.8,760.5,1072.8,764.7,1072.8,768.8z"/>
	<path class="st1" d="M397.5,962.5c7.3-54.4,12-107.1,15.3-159.9c4.8-77.5,5.7-155.2,5-232.9c-0.1-8.3-0.9-11-10.4-9.5
		c-45.2,7.1-90.5,13.2-135.7,19.5c-6.1,0.8-8.9,2.4-7.8,9.7c2.1,14,2.8,28.2,4.3,43.6c19-3.1,38-6.2,56.9-9.4
		c13.2-2.2,25,0.1,33.6,11.2c7.4,9.5,8.9,20.3,4.1,31.3c-5.1,11.9-15,17.5-27.5,19.4c-18.5,2.8-36.9,6.1-55.4,8.7
		c-7.5,1-11.4,3.1-10.8,11.9c0.7,9.6-0.1,19.5-1.5,29c-1.3,9.2,2.7,9.3,9.7,8.1c14-2.3,28.1-4.5,42.2-5.9
		c18.1-1.8,32.8,9.5,35.2,26.3c2.4,16.6-8.7,31.8-26.7,35c-20.5,3.6-41.1,6.4-61.6,9.1c-5,0.7-6.7,2.4-7.5,7.5
		c-8.8,52.3-22.9,103.2-42.9,152.4c-9,22.2-34,28.5-50.7,13.1c-9.9-9.2-12.7-21.9-7.1-36.2c13.6-35.2,24.8-71.1,32.9-108
		c15.9-72.7,19.2-146.2,13-220.2c-1.6-19.3-4.2-38.6-6.4-57.8c-1.9-17,9.4-32.3,27-34.9c63.7-9.4,127.5-18.4,191.3-27.5
		c8.2-1.2,16.4-2.6,24.7-3.7c22.9-3.2,38.6,10,39.1,33.1c2.2,112.7,1,225.4-8.5,337.8c-4.5,53.2-10.7,106.1-18.8,158.9
		c-4.4,28.8-30.9,39.4-53.9,21.2c-23.9-18.9-47.6-38.1-71.2-57.4c-15.7-12.8-18.2-31.5-6.5-45.7c11.6-14.1,30.3-15,46.2-2.3
		C376.6,945.7,386.3,953.5,397.5,962.5z"/>
	<path class="st1" d="M330.3,27.6c8.1-0.3,14.8,2.8,20.8,7.9c29.2,24.5,58.6,48.8,87.7,73.5c15.1,12.8,17.3,31.3,6,45.1
		c-11.6,14.2-30.5,15.5-46.1,2.6c-29.4-24.3-58.6-48.8-87.7-73.4c-11.9-10.1-15.2-23.3-10-36.4C305.7,34.9,317,27.5,330.3,27.6z"/>
</g>
</svg>
